<svg width="155" height="50" fill="none" xmlns="http://www.w3.org/2000/svg"><path d="M91.337 33.994c3.418 0 5.444-1.08 7.267-3.062l-2.481-2.701c-1.393 1.286-2.634 2.11-4.66 2.11-3.038 0-5.14-2.573-5.14-5.66 0-3.14 2.153-5.66 5.14-5.66 2.026 0 3.19.745 4.558 2.006l2.33-2.727c-1.646-1.647-3.52-2.933-6.862-2.933-5.444 0-9.242 4.193-9.242 9.313 0 5.223 3.874 9.314 9.09 9.314ZM101.219 33.685h3.899v-5.506l2.051-2.16 5.494 7.666h4.684l-7.545-10.368 7.216-7.642h-4.709l-7.191 7.873v-7.873h-3.899v18.01ZM127.816 33.994c5.469 0 9.445-4.194 9.445-9.314 0-5.171-3.925-9.313-9.394-9.313s-9.444 4.193-9.444 9.313c0 5.172 3.924 9.314 9.393 9.314Zm.051-3.654c-3.14 0-5.368-2.572-5.368-5.66 0-3.139 2.178-5.66 5.317-5.66 3.14 0 5.368 2.573 5.368 5.66 0 3.14-2.177 5.66-5.317 5.66ZM140.213 33.685h3.899V19.252h6.988v14.433h3.9v-18.01h-14.787v18.01ZM0 34.086h3.975l1.62-4.039h7.495l1.62 4.04h4.077l-7.596-18.139H7.596L0 34.086Zm6.988-7.538 2.355-5.84 2.355 5.84h-4.71ZM21.016 34.086h8.432c4 0 6.633-1.646 6.633-4.94 0-2.47-1.266-3.678-3.316-4.476 1.266-.72 2.329-1.853 2.329-3.885 0-1.286-.405-2.29-1.215-3.113-1.013-1.03-2.608-1.595-4.634-1.595h-8.229v18.01Zm3.798-10.728V19.55h3.849c1.646 0 2.557.669 2.557 1.852 0 1.39-1.089 1.956-2.81 1.956h-3.596Zm0 7.255v-3.962h4.507c2 0 2.887.746 2.887 1.955 0 1.39-1.039 2.007-2.76 2.007h-4.634ZM42.91 34.086h3.899V19.73h5.393v-3.653H37.517v3.653h5.393v14.356Z" fill="#3E3E3E"/><path d="M0 33.891h3.975l1.62-4.039h7.495l1.62 4.04h4.077l-7.596-18.139H7.596L0 33.891Zm6.988-7.538 2.355-5.84 2.355 5.84h-4.71ZM21.016 33.891h8.432c4 0 6.633-1.646 6.633-4.94 0-2.47-1.266-3.678-3.316-4.476 1.266-.72 2.329-1.852 2.329-3.885 0-1.286-.405-2.29-1.215-3.113-1.013-1.03-2.608-1.595-4.634-1.595h-8.229v18.01Zm3.798-10.728v-3.808h3.849c1.646 0 2.557.669 2.557 1.852 0 1.39-1.089 1.956-2.81 1.956h-3.596Zm0 7.255v-3.962h4.507c2 0 2.887.746 2.887 1.955 0 1.39-1.039 2.007-2.76 2.007h-4.634ZM42.91 33.891h3.899V19.535h5.393v-3.653H37.517v3.653h5.393v14.356Z" fill="#3E3E3E"/><path fill-rule="evenodd" clip-rule="evenodd" d="M76.833 35.494a.26.26 0 0 0 .182-.078 11.578 11.578 0 0 0 2.312-3.625c.566-1.423.853-2.934.853-4.532v-.068c0-1.608-.287-3.11-.853-4.532a11.576 11.576 0 0 0-2.37-3.723c-1.006-1.062-2.224-1.9-3.644-2.524a11.02 11.02 0 0 0-3.49-.867c-.202-.02-.346.175-.279.37l1.094 3.42a.29.29 0 0 0 .182.186 7.397 7.397 0 0 1 3.146 2.037 7.914 7.914 0 0 1 1.544 2.563 8.78 8.78 0 0 1 .556 3.138v.068a8.636 8.636 0 0 1-.556 3.119 8.365 8.365 0 0 1-1.017 1.93.298.298 0 0 0 .24.477h1.16c.451 0 .816.37.816.828v1.676c-.01.078.047.137.124.137Z" fill="url(#a)"/><path d="m70.627 25.526-4.201-11.939-.528-1.559-5.658 1.988.038.117.988 2.748a11.301 11.301 0 0 0-2.542 1.969 11.289 11.289 0 0 0-2.426 3.742c-.604 1.491-.863 2.992-.863 4.6 0 1.608.287 3.119.863 4.532a11.637 11.637 0 0 0 2.398 3.732c.086.088.23.03.23-.097l-.029-1.735a.807.807 0 0 1 .806-.828h1.16c.23 0 .365-.264.24-.458a11.139 11.139 0 0 1-1.045-2.086c-.394-1.043-.557-2.095-.557-3.206 0-1.101.278-2.154.653-3.119a8.015 8.015 0 0 1 1.534-2.553 7.31 7.31 0 0 1 .796-.75l2.455 6.86 1.736-.594.297.926 2.322-.77-.298-.926 1.63-.595Z" fill="#2285E0"/><path d="M76.151 33.581c-.038-.103-.182-.188-.307-.188h-1.553a.425.425 0 0 0-.221.077.325.325 0 0 0-.086.111 2.17 2.17 0 0 0-.087.282l-.153-.385-.882-2.172c-.173-.42-.624-.701-1.123-.701h-7.931c-.499 0-.96.282-1.122.7l-.624 1.532-.412 1.026a2.169 2.169 0 0 0-.086-.282c-.039-.103-.183-.188-.307-.188h-1.554a.375.375 0 0 0-.307.188c-.153.41-.153.641 0 1.052.038.103.182.188.307.188h1.554l-.02.06c-.316.094-.546.36-.546.676v4.687c0 .188.172.342.383.342h1.928c.211 0 .384-.154.384-.342v-1.172h8.785v1.172c0 .188.173.342.384.342h1.927c.211 0 .384-.154.384-.342v-4.696c0-.316-.23-.581-.547-.675l-.019-.06h1.554a.375.375 0 0 0 .307-.189c.144-.402.144-.633-.01-1.043ZM63.3 33.478l.652-1.616h7.634l.652 1.616.556 1.369h-10.05l.556-1.369Zm.863 3.464h-1.611c-.346 0-.624-.248-.624-.556 0-.308.278-.556.623-.556h1.612c.345 0 .623.248.623.556.01.308-.278.556-.623.556Zm8.823 0h-1.611c-.345 0-.623-.248-.623-.556 0-.308.278-.556.623-.556h1.611c.346 0 .624.248.624.556 0 .308-.278.556-.624.556ZM60.266 10.638l3.492-1.222.801 2.364-3.492 1.222z" fill="#2285E0"/><defs><linearGradient id="a" x1="74.85" y1="15.542" x2="74.85" y2="35.498" gradientUnits="userSpaceOnUse"><stop stop-color="#9FB7D3"/><stop offset="1" stop-color="#EFF4F7"/></linearGradient></defs></svg>